<mxfile host="app.diagrams.net" modified="2021-05-24T08:24:29.300Z" agent="5.0 (Windows NT 10.0; Win64; x64) AppleWebKit/537.36 (KHTML, like Gecko) Chrome/90.0.4430.72 Safari/537.36" etag="wANEwyhWc3wm15SUohjO" version="14.6.13" type="github">
  <diagram id="C5RBs43oDa-KdzZeNtuy" name="Page-1">
    <mxGraphModel dx="4063" dy="2177" grid="1" gridSize="10" guides="1" tooltips="1" connect="1" arrows="1" fold="1" page="1" pageScale="1" pageWidth="827" pageHeight="1169" math="0" shadow="0">
      <root>
        <mxCell id="WIyWlLk6GJQsqaUBKTNV-0" />
        <mxCell id="WIyWlLk6GJQsqaUBKTNV-1" parent="WIyWlLk6GJQsqaUBKTNV-0" />
        <mxCell id="bP5KUFuN8C3mjjLo8ime-2" style="edgeStyle=orthogonalEdgeStyle;rounded=0;orthogonalLoop=1;jettySize=auto;html=1;exitX=0.5;exitY=1;exitDx=0;exitDy=0;entryX=0.5;entryY=0;entryDx=0;entryDy=0;" parent="WIyWlLk6GJQsqaUBKTNV-1" source="WIyWlLk6GJQsqaUBKTNV-3" target="WT0UVrOEoNZwdIrJpfdh-0" edge="1">
          <mxGeometry relative="1" as="geometry" />
        </mxCell>
        <mxCell id="WIyWlLk6GJQsqaUBKTNV-3" value="main()" style="rounded=1;whiteSpace=wrap;html=1;fontSize=12;glass=0;strokeWidth=1;shadow=0;" parent="WIyWlLk6GJQsqaUBKTNV-1" vertex="1">
          <mxGeometry x="115" y="30" width="120" height="40" as="geometry" />
        </mxCell>
        <mxCell id="bP5KUFuN8C3mjjLo8ime-1" style="edgeStyle=orthogonalEdgeStyle;rounded=0;orthogonalLoop=1;jettySize=auto;html=1;exitX=0.5;exitY=1;exitDx=0;exitDy=0;entryX=0.5;entryY=0;entryDx=0;entryDy=0;" parent="WIyWlLk6GJQsqaUBKTNV-1" source="WT0UVrOEoNZwdIrJpfdh-0" target="bP5KUFuN8C3mjjLo8ime-0" edge="1">
          <mxGeometry relative="1" as="geometry" />
        </mxCell>
        <mxCell id="WT0UVrOEoNZwdIrJpfdh-0" value="sync_with_stdio&lt;br&gt;打开兼容stdio同步" style="rounded=0;whiteSpace=wrap;html=1;" parent="WIyWlLk6GJQsqaUBKTNV-1" vertex="1">
          <mxGeometry x="115" y="90" width="120" height="40" as="geometry" />
        </mxCell>
        <mxCell id="bP5KUFuN8C3mjjLo8ime-4" style="edgeStyle=orthogonalEdgeStyle;rounded=0;orthogonalLoop=1;jettySize=auto;html=1;exitX=0.5;exitY=1;exitDx=0;exitDy=0;entryX=0.5;entryY=0;entryDx=0;entryDy=0;" parent="WIyWlLk6GJQsqaUBKTNV-1" source="bP5KUFuN8C3mjjLo8ime-0" target="bP5KUFuN8C3mjjLo8ime-3" edge="1">
          <mxGeometry relative="1" as="geometry" />
        </mxCell>
        <mxCell id="bP5KUFuN8C3mjjLo8ime-0" value="time和srand&lt;br&gt;设置随机种子" style="rounded=0;whiteSpace=wrap;html=1;" parent="WIyWlLk6GJQsqaUBKTNV-1" vertex="1">
          <mxGeometry x="115" y="150" width="120" height="40" as="geometry" />
        </mxCell>
        <mxCell id="78SHquf4xXhVxRJzYclN-2" style="edgeStyle=orthogonalEdgeStyle;rounded=0;orthogonalLoop=1;jettySize=auto;html=1;exitX=0.5;exitY=1;exitDx=0;exitDy=0;entryX=0.5;entryY=0;entryDx=0;entryDy=0;" parent="WIyWlLk6GJQsqaUBKTNV-1" source="bP5KUFuN8C3mjjLo8ime-3" target="78SHquf4xXhVxRJzYclN-0" edge="1">
          <mxGeometry relative="1" as="geometry" />
        </mxCell>
        <mxCell id="bP5KUFuN8C3mjjLo8ime-3" value="v3Global.boot()&lt;br&gt;初始化网表" style="rounded=0;whiteSpace=wrap;html=1;" parent="WIyWlLk6GJQsqaUBKTNV-1" vertex="1">
          <mxGeometry x="115" y="210" width="120" height="40" as="geometry" />
        </mxCell>
        <mxCell id="78SHquf4xXhVxRJzYclN-3" style="edgeStyle=orthogonalEdgeStyle;rounded=0;orthogonalLoop=1;jettySize=auto;html=1;exitX=0.5;exitY=1;exitDx=0;exitDy=0;" parent="WIyWlLk6GJQsqaUBKTNV-1" source="78SHquf4xXhVxRJzYclN-0" target="78SHquf4xXhVxRJzYclN-1" edge="1">
          <mxGeometry relative="1" as="geometry" />
        </mxCell>
        <mxCell id="78SHquf4xXhVxRJzYclN-0" value="V3PreShell::boot()&lt;br&gt;预处理" style="rounded=0;whiteSpace=wrap;html=1;" parent="WIyWlLk6GJQsqaUBKTNV-1" vertex="1">
          <mxGeometry x="115" y="270" width="120" height="40" as="geometry" />
        </mxCell>
        <mxCell id="78SHquf4xXhVxRJzYclN-7" style="edgeStyle=orthogonalEdgeStyle;rounded=0;orthogonalLoop=1;jettySize=auto;html=1;exitX=0.5;exitY=1;exitDx=0;exitDy=0;entryX=0.5;entryY=0;entryDx=0;entryDy=0;" parent="WIyWlLk6GJQsqaUBKTNV-1" source="78SHquf4xXhVxRJzYclN-1" target="78SHquf4xXhVxRJzYclN-4" edge="1">
          <mxGeometry relative="1" as="geometry" />
        </mxCell>
        <mxCell id="78SHquf4xXhVxRJzYclN-1" value="v3Global.opt.parseOpts&lt;br&gt;命令行参数解析" style="rounded=0;whiteSpace=wrap;html=1;" parent="WIyWlLk6GJQsqaUBKTNV-1" vertex="1">
          <mxGeometry x="105" y="330" width="140" height="40" as="geometry" />
        </mxCell>
        <mxCell id="78SHquf4xXhVxRJzYclN-6" style="edgeStyle=orthogonalEdgeStyle;rounded=0;orthogonalLoop=1;jettySize=auto;html=1;exitX=0.5;exitY=1;exitDx=0;exitDy=0;entryX=0.5;entryY=0;entryDx=0;entryDy=0;" parent="WIyWlLk6GJQsqaUBKTNV-1" source="78SHquf4xXhVxRJzYclN-4" target="78SHquf4xXhVxRJzYclN-5" edge="1">
          <mxGeometry relative="1" as="geometry" />
        </mxCell>
        <mxCell id="78SHquf4xXhVxRJzYclN-12" style="edgeStyle=orthogonalEdgeStyle;rounded=0;orthogonalLoop=1;jettySize=auto;html=1;exitX=0;exitY=0.5;exitDx=0;exitDy=0;entryX=0;entryY=0.5;entryDx=0;entryDy=0;" parent="WIyWlLk6GJQsqaUBKTNV-1" source="78SHquf4xXhVxRJzYclN-4" target="78SHquf4xXhVxRJzYclN-9" edge="1">
          <mxGeometry relative="1" as="geometry" />
        </mxCell>
        <mxCell id="78SHquf4xXhVxRJzYclN-4" value="v3Global.opt.verilate()&lt;br&gt;判断--no-verilate标记" style="rhombus;whiteSpace=wrap;html=1;" parent="WIyWlLk6GJQsqaUBKTNV-1" vertex="1">
          <mxGeometry x="80" y="390" width="190" height="60" as="geometry" />
        </mxCell>
        <mxCell id="78SHquf4xXhVxRJzYclN-11" style="edgeStyle=orthogonalEdgeStyle;rounded=0;orthogonalLoop=1;jettySize=auto;html=1;exitX=0.5;exitY=1;exitDx=0;exitDy=0;entryX=0.5;entryY=0;entryDx=0;entryDy=0;" parent="WIyWlLk6GJQsqaUBKTNV-1" source="78SHquf4xXhVxRJzYclN-5" target="78SHquf4xXhVxRJzYclN-9" edge="1">
          <mxGeometry relative="1" as="geometry" />
        </mxCell>
        <mxCell id="tmzfgXfwM9NLhvjGa7lV-13" style="edgeStyle=orthogonalEdgeStyle;rounded=0;orthogonalLoop=1;jettySize=auto;html=1;exitX=1;exitY=0.5;exitDx=0;exitDy=0;entryX=0;entryY=0.5;entryDx=0;entryDy=0;dashed=1;strokeWidth=1;jumpSize=6;" parent="WIyWlLk6GJQsqaUBKTNV-1" source="78SHquf4xXhVxRJzYclN-5" target="tmzfgXfwM9NLhvjGa7lV-1" edge="1">
          <mxGeometry relative="1" as="geometry" />
        </mxCell>
        <mxCell id="78SHquf4xXhVxRJzYclN-5" value="verilate()&lt;br&gt;转换" style="shape=process;whiteSpace=wrap;html=1;backgroundOutline=1;" parent="WIyWlLk6GJQsqaUBKTNV-1" vertex="1">
          <mxGeometry x="115" y="470" width="120" height="40" as="geometry" />
        </mxCell>
        <mxCell id="78SHquf4xXhVxRJzYclN-18" style="edgeStyle=orthogonalEdgeStyle;rounded=0;orthogonalLoop=1;jettySize=auto;html=1;exitX=0.5;exitY=1;exitDx=0;exitDy=0;" parent="WIyWlLk6GJQsqaUBKTNV-1" source="78SHquf4xXhVxRJzYclN-8" target="78SHquf4xXhVxRJzYclN-17" edge="1">
          <mxGeometry relative="1" as="geometry" />
        </mxCell>
        <mxCell id="78SHquf4xXhVxRJzYclN-8" value="execHierVerilation()&lt;br&gt;-&amp;gt;buildMakeCmd()&lt;br&gt;构建" style="shape=process;whiteSpace=wrap;html=1;backgroundOutline=1;" parent="WIyWlLk6GJQsqaUBKTNV-1" vertex="1">
          <mxGeometry x="100" y="610" width="150" height="50" as="geometry" />
        </mxCell>
        <mxCell id="78SHquf4xXhVxRJzYclN-10" style="edgeStyle=orthogonalEdgeStyle;rounded=0;orthogonalLoop=1;jettySize=auto;html=1;exitX=0.5;exitY=1;exitDx=0;exitDy=0;entryX=0.5;entryY=0;entryDx=0;entryDy=0;" parent="WIyWlLk6GJQsqaUBKTNV-1" source="78SHquf4xXhVxRJzYclN-9" target="78SHquf4xXhVxRJzYclN-8" edge="1">
          <mxGeometry relative="1" as="geometry" />
        </mxCell>
        <mxCell id="78SHquf4xXhVxRJzYclN-16" style="edgeStyle=orthogonalEdgeStyle;rounded=0;orthogonalLoop=1;jettySize=auto;html=1;exitX=1;exitY=0.5;exitDx=0;exitDy=0;entryX=0;entryY=0.5;entryDx=0;entryDy=0;" parent="WIyWlLk6GJQsqaUBKTNV-1" source="78SHquf4xXhVxRJzYclN-9" target="78SHquf4xXhVxRJzYclN-14" edge="1">
          <mxGeometry relative="1" as="geometry" />
        </mxCell>
        <mxCell id="78SHquf4xXhVxRJzYclN-9" value="v3Global.hierPlanp() &amp;amp;&amp;amp; v3Global.opt.gmake()" style="rhombus;whiteSpace=wrap;html=1;" parent="WIyWlLk6GJQsqaUBKTNV-1" vertex="1">
          <mxGeometry x="80" y="530" width="190" height="60" as="geometry" />
        </mxCell>
        <mxCell id="78SHquf4xXhVxRJzYclN-19" style="edgeStyle=orthogonalEdgeStyle;rounded=0;orthogonalLoop=1;jettySize=auto;html=1;exitX=0.5;exitY=1;exitDx=0;exitDy=0;" parent="WIyWlLk6GJQsqaUBKTNV-1" source="78SHquf4xXhVxRJzYclN-13" edge="1">
          <mxGeometry relative="1" as="geometry">
            <mxPoint x="175" y="700" as="targetPoint" />
          </mxGeometry>
        </mxCell>
        <mxCell id="78SHquf4xXhVxRJzYclN-13" value="execBuildJob()&lt;br&gt;-&amp;gt;buildMakeCmd()&lt;br&gt;构建" style="shape=process;whiteSpace=wrap;html=1;backgroundOutline=1;" parent="WIyWlLk6GJQsqaUBKTNV-1" vertex="1">
          <mxGeometry x="325" y="610" width="150" height="50" as="geometry" />
        </mxCell>
        <mxCell id="78SHquf4xXhVxRJzYclN-15" style="edgeStyle=orthogonalEdgeStyle;rounded=0;orthogonalLoop=1;jettySize=auto;html=1;exitX=0.5;exitY=1;exitDx=0;exitDy=0;entryX=0.5;entryY=0;entryDx=0;entryDy=0;" parent="WIyWlLk6GJQsqaUBKTNV-1" source="78SHquf4xXhVxRJzYclN-14" target="78SHquf4xXhVxRJzYclN-13" edge="1">
          <mxGeometry relative="1" as="geometry" />
        </mxCell>
        <mxCell id="78SHquf4xXhVxRJzYclN-14" value="v3Global.opt.build()" style="rhombus;whiteSpace=wrap;html=1;" parent="WIyWlLk6GJQsqaUBKTNV-1" vertex="1">
          <mxGeometry x="305" y="530" width="190" height="60" as="geometry" />
        </mxCell>
        <mxCell id="78SHquf4xXhVxRJzYclN-21" style="edgeStyle=orthogonalEdgeStyle;rounded=0;orthogonalLoop=1;jettySize=auto;html=1;exitX=0.5;exitY=1;exitDx=0;exitDy=0;entryX=0.5;entryY=0;entryDx=0;entryDy=0;" parent="WIyWlLk6GJQsqaUBKTNV-1" source="78SHquf4xXhVxRJzYclN-17" target="78SHquf4xXhVxRJzYclN-20" edge="1">
          <mxGeometry relative="1" as="geometry" />
        </mxCell>
        <mxCell id="78SHquf4xXhVxRJzYclN-17" value="v3Global.shutdown()&lt;br&gt;释放资源" style="rounded=0;whiteSpace=wrap;html=1;" parent="WIyWlLk6GJQsqaUBKTNV-1" vertex="1">
          <mxGeometry x="115" y="700" width="120" height="40" as="geometry" />
        </mxCell>
        <mxCell id="78SHquf4xXhVxRJzYclN-20" value="结束" style="rounded=1;whiteSpace=wrap;html=1;" parent="WIyWlLk6GJQsqaUBKTNV-1" vertex="1">
          <mxGeometry x="115" y="770" width="120" height="40" as="geometry" />
        </mxCell>
        <mxCell id="78SHquf4xXhVxRJzYclN-24" style="edgeStyle=orthogonalEdgeStyle;rounded=0;orthogonalLoop=1;jettySize=auto;html=1;exitX=1;exitY=0.5;exitDx=0;exitDy=0;entryX=0.5;entryY=0;entryDx=0;entryDy=0;" parent="WIyWlLk6GJQsqaUBKTNV-1" source="78SHquf4xXhVxRJzYclN-29" target="78SHquf4xXhVxRJzYclN-23" edge="1">
          <mxGeometry relative="1" as="geometry" />
        </mxCell>
        <mxCell id="78SHquf4xXhVxRJzYclN-26" style="edgeStyle=orthogonalEdgeStyle;rounded=0;orthogonalLoop=1;jettySize=auto;html=1;exitX=1;exitY=0.5;exitDx=0;exitDy=0;entryX=0;entryY=0.5;entryDx=0;entryDy=0;" parent="WIyWlLk6GJQsqaUBKTNV-1" source="78SHquf4xXhVxRJzYclN-23" target="78SHquf4xXhVxRJzYclN-25" edge="1">
          <mxGeometry relative="1" as="geometry" />
        </mxCell>
        <mxCell id="78SHquf4xXhVxRJzYclN-23" value="预处理" style="rounded=0;whiteSpace=wrap;html=1;" parent="WIyWlLk6GJQsqaUBKTNV-1" vertex="1">
          <mxGeometry x="1035" y="130" width="90" height="30" as="geometry" />
        </mxCell>
        <mxCell id="78SHquf4xXhVxRJzYclN-28" style="edgeStyle=orthogonalEdgeStyle;rounded=0;orthogonalLoop=1;jettySize=auto;html=1;exitX=1;exitY=0.5;exitDx=0;exitDy=0;entryX=0;entryY=0.5;entryDx=0;entryDy=0;" parent="WIyWlLk6GJQsqaUBKTNV-1" source="78SHquf4xXhVxRJzYclN-25" target="78SHquf4xXhVxRJzYclN-27" edge="1">
          <mxGeometry relative="1" as="geometry" />
        </mxCell>
        <mxCell id="78SHquf4xXhVxRJzYclN-25" value="Flex词法分析" style="rounded=0;whiteSpace=wrap;html=1;" parent="WIyWlLk6GJQsqaUBKTNV-1" vertex="1">
          <mxGeometry x="1165" y="130" width="90" height="30" as="geometry" />
        </mxCell>
        <mxCell id="78SHquf4xXhVxRJzYclN-34" style="edgeStyle=orthogonalEdgeStyle;rounded=0;orthogonalLoop=1;jettySize=auto;html=1;exitX=0.5;exitY=1;exitDx=0;exitDy=0;entryX=0.5;entryY=0;entryDx=0;entryDy=0;entryPerimeter=0;shape=flexArrow;endSize=4;startSize=4;strokeWidth=1;" parent="WIyWlLk6GJQsqaUBKTNV-1" source="78SHquf4xXhVxRJzYclN-27" target="78SHquf4xXhVxRJzYclN-33" edge="1">
          <mxGeometry relative="1" as="geometry" />
        </mxCell>
        <mxCell id="78SHquf4xXhVxRJzYclN-27" value="Bison词法分析" style="rounded=0;whiteSpace=wrap;html=1;" parent="WIyWlLk6GJQsqaUBKTNV-1" vertex="1">
          <mxGeometry x="1285" y="130" width="90" height="30" as="geometry" />
        </mxCell>
        <mxCell id="78SHquf4xXhVxRJzYclN-40" style="edgeStyle=orthogonalEdgeStyle;rounded=0;orthogonalLoop=1;jettySize=auto;html=1;exitX=0.5;exitY=1;exitDx=0;exitDy=0;strokeWidth=1;" parent="WIyWlLk6GJQsqaUBKTNV-1" source="78SHquf4xXhVxRJzYclN-29" target="78SHquf4xXhVxRJzYclN-35" edge="1">
          <mxGeometry relative="1" as="geometry" />
        </mxCell>
        <mxCell id="78SHquf4xXhVxRJzYclN-29" value="&lt;span&gt;1.读入命令行输入文件&lt;/span&gt;" style="shape=process;whiteSpace=wrap;html=1;backgroundOutline=1;" parent="WIyWlLk6GJQsqaUBKTNV-1" vertex="1">
          <mxGeometry x="885" y="90" width="120" height="40" as="geometry" />
        </mxCell>
        <mxCell id="78SHquf4xXhVxRJzYclN-33" value="AST.tree" style="strokeWidth=2;html=1;shape=mxgraph.flowchart.direct_data;whiteSpace=wrap;" parent="WIyWlLk6GJQsqaUBKTNV-1" vertex="1">
          <mxGeometry x="1290" y="200" width="80" height="40" as="geometry" />
        </mxCell>
        <mxCell id="78SHquf4xXhVxRJzYclN-41" style="edgeStyle=orthogonalEdgeStyle;rounded=0;orthogonalLoop=1;jettySize=auto;html=1;exitX=0.5;exitY=1;exitDx=0;exitDy=0;entryX=0.5;entryY=0;entryDx=0;entryDy=0;strokeWidth=1;" parent="WIyWlLk6GJQsqaUBKTNV-1" source="78SHquf4xXhVxRJzYclN-35" target="78SHquf4xXhVxRJzYclN-36" edge="1">
          <mxGeometry relative="1" as="geometry" />
        </mxCell>
        <mxCell id="78SHquf4xXhVxRJzYclN-35" value="&lt;span&gt;2.遍历AST，逐步提炼和优化&lt;/span&gt;" style="shape=process;whiteSpace=wrap;html=1;backgroundOutline=1;" parent="WIyWlLk6GJQsqaUBKTNV-1" vertex="1">
          <mxGeometry x="885" y="186" width="120" height="40" as="geometry" />
        </mxCell>
        <mxCell id="78SHquf4xXhVxRJzYclN-42" style="edgeStyle=orthogonalEdgeStyle;rounded=0;orthogonalLoop=1;jettySize=auto;html=1;exitX=0.5;exitY=1;exitDx=0;exitDy=0;entryX=0.5;entryY=0;entryDx=0;entryDy=0;strokeWidth=1;" parent="WIyWlLk6GJQsqaUBKTNV-1" source="78SHquf4xXhVxRJzYclN-36" target="78SHquf4xXhVxRJzYclN-37" edge="1">
          <mxGeometry relative="1" as="geometry" />
        </mxCell>
        <mxCell id="78SHquf4xXhVxRJzYclN-36" value="&lt;span&gt;3.&lt;/span&gt;链接&lt;span&gt;AST Cell&lt;/span&gt;" style="shape=process;whiteSpace=wrap;html=1;backgroundOutline=1;" parent="WIyWlLk6GJQsqaUBKTNV-1" vertex="1">
          <mxGeometry x="885" y="256" width="120" height="40" as="geometry" />
        </mxCell>
        <mxCell id="78SHquf4xXhVxRJzYclN-59" style="edgeStyle=orthogonalEdgeStyle;rounded=0;orthogonalLoop=1;jettySize=auto;html=1;exitX=0.5;exitY=1;exitDx=0;exitDy=0;entryX=0.5;entryY=0;entryDx=0;entryDy=0;strokeWidth=1;" parent="WIyWlLk6GJQsqaUBKTNV-1" source="78SHquf4xXhVxRJzYclN-37" target="78SHquf4xXhVxRJzYclN-43" edge="1">
          <mxGeometry relative="1" as="geometry" />
        </mxCell>
        <mxCell id="78SHquf4xXhVxRJzYclN-37" value="&lt;span&gt;4.函数、变量和其他引用都链接到定义&lt;/span&gt;" style="shape=process;whiteSpace=wrap;html=1;backgroundOutline=1;" parent="WIyWlLk6GJQsqaUBKTNV-1" vertex="1">
          <mxGeometry x="870" y="326" width="150" height="40" as="geometry" />
        </mxCell>
        <mxCell id="78SHquf4xXhVxRJzYclN-39" style="edgeStyle=orthogonalEdgeStyle;rounded=0;orthogonalLoop=1;jettySize=auto;html=1;exitX=0.5;exitY=1;exitDx=0;exitDy=0;entryX=0.5;entryY=0;entryDx=0;entryDy=0;strokeWidth=1;" parent="WIyWlLk6GJQsqaUBKTNV-1" source="78SHquf4xXhVxRJzYclN-38" target="78SHquf4xXhVxRJzYclN-29" edge="1">
          <mxGeometry relative="1" as="geometry" />
        </mxCell>
        <mxCell id="78SHquf4xXhVxRJzYclN-38" value="process()" style="rounded=1;whiteSpace=wrap;html=1;fontSize=12;glass=0;strokeWidth=1;shadow=0;" parent="WIyWlLk6GJQsqaUBKTNV-1" vertex="1">
          <mxGeometry x="885" y="30" width="120" height="40" as="geometry" />
        </mxCell>
        <mxCell id="78SHquf4xXhVxRJzYclN-60" style="edgeStyle=orthogonalEdgeStyle;rounded=0;orthogonalLoop=1;jettySize=auto;html=1;exitX=0.5;exitY=1;exitDx=0;exitDy=0;entryX=0.5;entryY=0;entryDx=0;entryDy=0;strokeWidth=1;" parent="WIyWlLk6GJQsqaUBKTNV-1" source="78SHquf4xXhVxRJzYclN-43" target="78SHquf4xXhVxRJzYclN-45" edge="1">
          <mxGeometry relative="1" as="geometry" />
        </mxCell>
        <mxCell id="78SHquf4xXhVxRJzYclN-43" value="&lt;span&gt;5.解析参数，细化设计&lt;/span&gt;" style="shape=process;whiteSpace=wrap;html=1;backgroundOutline=1;" parent="WIyWlLk6GJQsqaUBKTNV-1" vertex="1">
          <mxGeometry x="870" y="396" width="150" height="40" as="geometry" />
        </mxCell>
        <mxCell id="78SHquf4xXhVxRJzYclN-52" style="edgeStyle=orthogonalEdgeStyle;rounded=0;orthogonalLoop=1;jettySize=auto;html=1;exitX=1;exitY=0.5;exitDx=0;exitDy=0;entryX=0.5;entryY=0;entryDx=0;entryDy=0;strokeWidth=1;" parent="WIyWlLk6GJQsqaUBKTNV-1" source="78SHquf4xXhVxRJzYclN-45" target="78SHquf4xXhVxRJzYclN-46" edge="1">
          <mxGeometry relative="1" as="geometry" />
        </mxCell>
        <mxCell id="78SHquf4xXhVxRJzYclN-62" style="edgeStyle=orthogonalEdgeStyle;rounded=0;orthogonalLoop=1;jettySize=auto;html=1;exitX=0.5;exitY=1;exitDx=0;exitDy=0;entryX=0.5;entryY=0;entryDx=0;entryDy=0;strokeWidth=1;" parent="WIyWlLk6GJQsqaUBKTNV-1" source="78SHquf4xXhVxRJzYclN-45" target="78SHquf4xXhVxRJzYclN-61" edge="1">
          <mxGeometry relative="1" as="geometry" />
        </mxCell>
        <mxCell id="78SHquf4xXhVxRJzYclN-45" value="6.分层结构上进行编辑、优化" style="shape=process;whiteSpace=wrap;html=1;backgroundOutline=1;" parent="WIyWlLk6GJQsqaUBKTNV-1" vertex="1">
          <mxGeometry x="885" y="466" width="120" height="40" as="geometry" />
        </mxCell>
        <mxCell id="78SHquf4xXhVxRJzYclN-54" style="edgeStyle=orthogonalEdgeStyle;rounded=0;orthogonalLoop=1;jettySize=auto;html=1;exitX=1;exitY=0.5;exitDx=0;exitDy=0;strokeWidth=1;" parent="WIyWlLk6GJQsqaUBKTNV-1" source="78SHquf4xXhVxRJzYclN-46" target="78SHquf4xXhVxRJzYclN-48" edge="1">
          <mxGeometry relative="1" as="geometry" />
        </mxCell>
        <mxCell id="78SHquf4xXhVxRJzYclN-46" value="覆盖" style="rounded=0;whiteSpace=wrap;html=1;" parent="WIyWlLk6GJQsqaUBKTNV-1" vertex="1">
          <mxGeometry x="1035" y="506" width="90" height="30" as="geometry" />
        </mxCell>
        <mxCell id="78SHquf4xXhVxRJzYclN-47" value="内联" style="rounded=0;whiteSpace=wrap;html=1;" parent="WIyWlLk6GJQsqaUBKTNV-1" vertex="1">
          <mxGeometry x="1035" y="556" width="90" height="30" as="geometry" />
        </mxCell>
        <mxCell id="78SHquf4xXhVxRJzYclN-55" style="edgeStyle=orthogonalEdgeStyle;rounded=0;orthogonalLoop=1;jettySize=auto;html=1;exitX=1;exitY=0.5;exitDx=0;exitDy=0;strokeWidth=1;" parent="WIyWlLk6GJQsqaUBKTNV-1" source="78SHquf4xXhVxRJzYclN-48" target="78SHquf4xXhVxRJzYclN-50" edge="1">
          <mxGeometry relative="1" as="geometry" />
        </mxCell>
        <mxCell id="78SHquf4xXhVxRJzYclN-48" value="断言" style="rounded=0;whiteSpace=wrap;html=1;" parent="WIyWlLk6GJQsqaUBKTNV-1" vertex="1">
          <mxGeometry x="1155" y="506" width="90" height="30" as="geometry" />
        </mxCell>
        <mxCell id="78SHquf4xXhVxRJzYclN-58" style="edgeStyle=orthogonalEdgeStyle;rounded=0;orthogonalLoop=1;jettySize=auto;html=1;exitX=0;exitY=0.5;exitDx=0;exitDy=0;entryX=1;entryY=0.5;entryDx=0;entryDy=0;strokeWidth=1;" parent="WIyWlLk6GJQsqaUBKTNV-1" source="78SHquf4xXhVxRJzYclN-49" target="78SHquf4xXhVxRJzYclN-47" edge="1">
          <mxGeometry relative="1" as="geometry" />
        </mxCell>
        <mxCell id="78SHquf4xXhVxRJzYclN-49" value="常量传播" style="rounded=0;whiteSpace=wrap;html=1;" parent="WIyWlLk6GJQsqaUBKTNV-1" vertex="1">
          <mxGeometry x="1155" y="556" width="90" height="30" as="geometry" />
        </mxCell>
        <mxCell id="78SHquf4xXhVxRJzYclN-56" style="edgeStyle=orthogonalEdgeStyle;rounded=0;orthogonalLoop=1;jettySize=auto;html=1;exitX=0.5;exitY=1;exitDx=0;exitDy=0;entryX=0.5;entryY=0;entryDx=0;entryDy=0;strokeWidth=1;" parent="WIyWlLk6GJQsqaUBKTNV-1" source="78SHquf4xXhVxRJzYclN-50" target="78SHquf4xXhVxRJzYclN-51" edge="1">
          <mxGeometry relative="1" as="geometry" />
        </mxCell>
        <mxCell id="78SHquf4xXhVxRJzYclN-50" value="X消除" style="rounded=0;whiteSpace=wrap;html=1;" parent="WIyWlLk6GJQsqaUBKTNV-1" vertex="1">
          <mxGeometry x="1275" y="506" width="90" height="30" as="geometry" />
        </mxCell>
        <mxCell id="78SHquf4xXhVxRJzYclN-57" style="edgeStyle=orthogonalEdgeStyle;rounded=0;orthogonalLoop=1;jettySize=auto;html=1;exitX=0;exitY=0.5;exitDx=0;exitDy=0;entryX=1;entryY=0.5;entryDx=0;entryDy=0;strokeWidth=1;" parent="WIyWlLk6GJQsqaUBKTNV-1" source="78SHquf4xXhVxRJzYclN-51" target="78SHquf4xXhVxRJzYclN-49" edge="1">
          <mxGeometry relative="1" as="geometry" />
        </mxCell>
        <mxCell id="78SHquf4xXhVxRJzYclN-51" value="死代码消除" style="rounded=0;whiteSpace=wrap;html=1;" parent="WIyWlLk6GJQsqaUBKTNV-1" vertex="1">
          <mxGeometry x="1275" y="556" width="90" height="30" as="geometry" />
        </mxCell>
        <mxCell id="78SHquf4xXhVxRJzYclN-78" value="" style="edgeStyle=orthogonalEdgeStyle;rounded=0;orthogonalLoop=1;jettySize=auto;html=1;strokeWidth=1;" parent="WIyWlLk6GJQsqaUBKTNV-1" source="78SHquf4xXhVxRJzYclN-61" target="78SHquf4xXhVxRJzYclN-63" edge="1">
          <mxGeometry relative="1" as="geometry" />
        </mxCell>
        <mxCell id="78SHquf4xXhVxRJzYclN-61" value="&lt;span&gt;7.引用被伪扁平化，每个变量和函数获得范围引用&lt;/span&gt;" style="shape=process;whiteSpace=wrap;html=1;backgroundOutline=1;" parent="WIyWlLk6GJQsqaUBKTNV-1" vertex="1">
          <mxGeometry x="870" y="616" width="150" height="50" as="geometry" />
        </mxCell>
        <mxCell id="78SHquf4xXhVxRJzYclN-71" style="edgeStyle=orthogonalEdgeStyle;rounded=0;orthogonalLoop=1;jettySize=auto;html=1;exitX=1;exitY=0.5;exitDx=0;exitDy=0;entryX=0.5;entryY=0;entryDx=0;entryDy=0;strokeWidth=1;" parent="WIyWlLk6GJQsqaUBKTNV-1" source="78SHquf4xXhVxRJzYclN-63" target="78SHquf4xXhVxRJzYclN-64" edge="1">
          <mxGeometry relative="1" as="geometry" />
        </mxCell>
        <mxCell id="78SHquf4xXhVxRJzYclN-87" style="edgeStyle=orthogonalEdgeStyle;rounded=0;orthogonalLoop=1;jettySize=auto;html=1;exitX=0.5;exitY=1;exitDx=0;exitDy=0;entryX=0.5;entryY=0;entryDx=0;entryDy=0;strokeWidth=1;" parent="WIyWlLk6GJQsqaUBKTNV-1" source="78SHquf4xXhVxRJzYclN-63" target="78SHquf4xXhVxRJzYclN-79" edge="1">
          <mxGeometry relative="1" as="geometry" />
        </mxCell>
        <mxCell id="78SHquf4xXhVxRJzYclN-63" value="&lt;span&gt;8.在伪扁平化设计上继续编辑和优化&lt;/span&gt;" style="shape=process;whiteSpace=wrap;html=1;backgroundOutline=1;" parent="WIyWlLk6GJQsqaUBKTNV-1" vertex="1">
          <mxGeometry x="870" y="706" width="150" height="50" as="geometry" />
        </mxCell>
        <mxCell id="78SHquf4xXhVxRJzYclN-72" style="edgeStyle=orthogonalEdgeStyle;rounded=0;orthogonalLoop=1;jettySize=auto;html=1;exitX=1;exitY=0.5;exitDx=0;exitDy=0;entryX=0;entryY=0.5;entryDx=0;entryDy=0;strokeWidth=1;" parent="WIyWlLk6GJQsqaUBKTNV-1" source="78SHquf4xXhVxRJzYclN-64" target="78SHquf4xXhVxRJzYclN-65" edge="1">
          <mxGeometry relative="1" as="geometry" />
        </mxCell>
        <mxCell id="78SHquf4xXhVxRJzYclN-64" value="模块引用" style="rounded=0;whiteSpace=wrap;html=1;" parent="WIyWlLk6GJQsqaUBKTNV-1" vertex="1">
          <mxGeometry x="1035" y="756" width="90" height="30" as="geometry" />
        </mxCell>
        <mxCell id="78SHquf4xXhVxRJzYclN-73" style="edgeStyle=orthogonalEdgeStyle;rounded=0;orthogonalLoop=1;jettySize=auto;html=1;exitX=1;exitY=0.5;exitDx=0;exitDy=0;strokeWidth=1;" parent="WIyWlLk6GJQsqaUBKTNV-1" source="78SHquf4xXhVxRJzYclN-65" target="78SHquf4xXhVxRJzYclN-66" edge="1">
          <mxGeometry relative="1" as="geometry" />
        </mxCell>
        <mxCell id="78SHquf4xXhVxRJzYclN-65" value="函数内联" style="rounded=0;whiteSpace=wrap;html=1;" parent="WIyWlLk6GJQsqaUBKTNV-1" vertex="1">
          <mxGeometry x="1155" y="756" width="90" height="30" as="geometry" />
        </mxCell>
        <mxCell id="78SHquf4xXhVxRJzYclN-74" value="" style="edgeStyle=orthogonalEdgeStyle;rounded=0;orthogonalLoop=1;jettySize=auto;html=1;strokeWidth=1;" parent="WIyWlLk6GJQsqaUBKTNV-1" source="78SHquf4xXhVxRJzYclN-66" target="78SHquf4xXhVxRJzYclN-67" edge="1">
          <mxGeometry relative="1" as="geometry" />
        </mxCell>
        <mxCell id="78SHquf4xXhVxRJzYclN-66" value="循环展开" style="rounded=0;whiteSpace=wrap;html=1;" parent="WIyWlLk6GJQsqaUBKTNV-1" vertex="1">
          <mxGeometry x="1275" y="756" width="90" height="30" as="geometry" />
        </mxCell>
        <mxCell id="78SHquf4xXhVxRJzYclN-75" value="" style="edgeStyle=orthogonalEdgeStyle;rounded=0;orthogonalLoop=1;jettySize=auto;html=1;strokeWidth=1;" parent="WIyWlLk6GJQsqaUBKTNV-1" source="78SHquf4xXhVxRJzYclN-67" target="78SHquf4xXhVxRJzYclN-68" edge="1">
          <mxGeometry relative="1" as="geometry" />
        </mxCell>
        <mxCell id="78SHquf4xXhVxRJzYclN-67" value="变量生存期分析" style="rounded=0;whiteSpace=wrap;html=1;" parent="WIyWlLk6GJQsqaUBKTNV-1" vertex="1">
          <mxGeometry x="1395" y="756" width="90" height="30" as="geometry" />
        </mxCell>
        <mxCell id="78SHquf4xXhVxRJzYclN-76" value="" style="edgeStyle=orthogonalEdgeStyle;rounded=0;orthogonalLoop=1;jettySize=auto;html=1;strokeWidth=1;" parent="WIyWlLk6GJQsqaUBKTNV-1" source="78SHquf4xXhVxRJzYclN-68" target="78SHquf4xXhVxRJzYclN-69" edge="1">
          <mxGeometry relative="1" as="geometry" />
        </mxCell>
        <mxCell id="78SHquf4xXhVxRJzYclN-68" value="查找表创建" style="rounded=0;whiteSpace=wrap;html=1;" parent="WIyWlLk6GJQsqaUBKTNV-1" vertex="1">
          <mxGeometry x="1395" y="816" width="90" height="30" as="geometry" />
        </mxCell>
        <mxCell id="78SHquf4xXhVxRJzYclN-77" value="" style="edgeStyle=orthogonalEdgeStyle;rounded=0;orthogonalLoop=1;jettySize=auto;html=1;strokeWidth=1;" parent="WIyWlLk6GJQsqaUBKTNV-1" source="78SHquf4xXhVxRJzYclN-69" target="78SHquf4xXhVxRJzYclN-70" edge="1">
          <mxGeometry relative="1" as="geometry" />
        </mxCell>
        <mxCell id="78SHquf4xXhVxRJzYclN-69" value="always拆分" style="rounded=0;whiteSpace=wrap;html=1;" parent="WIyWlLk6GJQsqaUBKTNV-1" vertex="1">
          <mxGeometry x="1275" y="816" width="90" height="30" as="geometry" />
        </mxCell>
        <mxCell id="78SHquf4xXhVxRJzYclN-70" value="逻辑门简化" style="rounded=0;whiteSpace=wrap;html=1;" parent="WIyWlLk6GJQsqaUBKTNV-1" vertex="1">
          <mxGeometry x="1155" y="816" width="90" height="30" as="geometry" />
        </mxCell>
        <mxCell id="78SHquf4xXhVxRJzYclN-88" style="edgeStyle=orthogonalEdgeStyle;rounded=0;orthogonalLoop=1;jettySize=auto;html=1;exitX=0.5;exitY=1;exitDx=0;exitDy=0;entryX=0.5;entryY=0;entryDx=0;entryDy=0;strokeWidth=1;" parent="WIyWlLk6GJQsqaUBKTNV-1" source="78SHquf4xXhVxRJzYclN-79" target="78SHquf4xXhVxRJzYclN-80" edge="1">
          <mxGeometry relative="1" as="geometry" />
        </mxCell>
        <mxCell id="78SHquf4xXhVxRJzYclN-79" value="&lt;span&gt;9.组织代码，生成eval函数&lt;/span&gt;" style="shape=process;whiteSpace=wrap;html=1;backgroundOutline=1;" parent="WIyWlLk6GJQsqaUBKTNV-1" vertex="1">
          <mxGeometry x="870" y="845" width="150" height="50" as="geometry" />
        </mxCell>
        <mxCell id="78SHquf4xXhVxRJzYclN-89" style="edgeStyle=orthogonalEdgeStyle;rounded=0;orthogonalLoop=1;jettySize=auto;html=1;exitX=0.5;exitY=1;exitDx=0;exitDy=0;entryX=0.5;entryY=0;entryDx=0;entryDy=0;strokeWidth=1;" parent="WIyWlLk6GJQsqaUBKTNV-1" source="78SHquf4xXhVxRJzYclN-80" target="78SHquf4xXhVxRJzYclN-81" edge="1">
          <mxGeometry relative="1" as="geometry" />
        </mxCell>
        <mxCell id="78SHquf4xXhVxRJzYclN-90" style="edgeStyle=orthogonalEdgeStyle;rounded=0;orthogonalLoop=1;jettySize=auto;html=1;exitX=1;exitY=0.5;exitDx=0;exitDy=0;entryX=0.5;entryY=0;entryDx=0;entryDy=0;strokeWidth=1;" parent="WIyWlLk6GJQsqaUBKTNV-1" source="78SHquf4xXhVxRJzYclN-80" target="78SHquf4xXhVxRJzYclN-82" edge="1">
          <mxGeometry relative="1" as="geometry" />
        </mxCell>
        <mxCell id="78SHquf4xXhVxRJzYclN-80" value="&lt;span&gt;10.消除扁平化，以多个模块调用共用代码&lt;/span&gt;" style="shape=process;whiteSpace=wrap;html=1;backgroundOutline=1;" parent="WIyWlLk6GJQsqaUBKTNV-1" vertex="1">
          <mxGeometry x="870" y="935" width="150" height="50" as="geometry" />
        </mxCell>
        <mxCell id="78SHquf4xXhVxRJzYclN-81" value="&lt;span&gt;11.输出C++模块&lt;/span&gt;" style="shape=process;whiteSpace=wrap;html=1;backgroundOutline=1;" parent="WIyWlLk6GJQsqaUBKTNV-1" vertex="1">
          <mxGeometry x="870" y="1065" width="150" height="50" as="geometry" />
        </mxCell>
        <mxCell id="78SHquf4xXhVxRJzYclN-91" style="edgeStyle=orthogonalEdgeStyle;rounded=0;orthogonalLoop=1;jettySize=auto;html=1;exitX=1;exitY=0.5;exitDx=0;exitDy=0;entryX=0;entryY=0.5;entryDx=0;entryDy=0;strokeWidth=1;" parent="WIyWlLk6GJQsqaUBKTNV-1" source="78SHquf4xXhVxRJzYclN-82" target="78SHquf4xXhVxRJzYclN-83" edge="1">
          <mxGeometry relative="1" as="geometry" />
        </mxCell>
        <mxCell id="78SHquf4xXhVxRJzYclN-82" value="本地化变量" style="rounded=0;whiteSpace=wrap;html=1;" parent="WIyWlLk6GJQsqaUBKTNV-1" vertex="1">
          <mxGeometry x="1035" y="985" width="90" height="30" as="geometry" />
        </mxCell>
        <mxCell id="78SHquf4xXhVxRJzYclN-92" value="" style="edgeStyle=orthogonalEdgeStyle;rounded=0;orthogonalLoop=1;jettySize=auto;html=1;strokeWidth=1;" parent="WIyWlLk6GJQsqaUBKTNV-1" source="78SHquf4xXhVxRJzYclN-83" target="78SHquf4xXhVxRJzYclN-84" edge="1">
          <mxGeometry relative="1" as="geometry" />
        </mxCell>
        <mxCell id="78SHquf4xXhVxRJzYclN-83" value="合并相同函数" style="rounded=0;whiteSpace=wrap;html=1;" parent="WIyWlLk6GJQsqaUBKTNV-1" vertex="1">
          <mxGeometry x="1155" y="985" width="90" height="30" as="geometry" />
        </mxCell>
        <mxCell id="78SHquf4xXhVxRJzYclN-93" value="" style="edgeStyle=orthogonalEdgeStyle;rounded=0;orthogonalLoop=1;jettySize=auto;html=1;strokeWidth=1;" parent="WIyWlLk6GJQsqaUBKTNV-1" source="78SHquf4xXhVxRJzYclN-84" target="78SHquf4xXhVxRJzYclN-85" edge="1">
          <mxGeometry relative="1" as="geometry" />
        </mxCell>
        <mxCell id="78SHquf4xXhVxRJzYclN-84" value="扩展宏到C原语" style="rounded=0;whiteSpace=wrap;html=1;" parent="WIyWlLk6GJQsqaUBKTNV-1" vertex="1">
          <mxGeometry x="1275" y="985" width="90" height="30" as="geometry" />
        </mxCell>
        <mxCell id="78SHquf4xXhVxRJzYclN-94" value="" style="edgeStyle=orthogonalEdgeStyle;rounded=0;orthogonalLoop=1;jettySize=auto;html=1;strokeWidth=1;" parent="WIyWlLk6GJQsqaUBKTNV-1" source="78SHquf4xXhVxRJzYclN-85" target="78SHquf4xXhVxRJzYclN-86" edge="1">
          <mxGeometry relative="1" as="geometry" />
        </mxCell>
        <mxCell id="78SHquf4xXhVxRJzYclN-85" value="增加分支预测标记" style="rounded=0;whiteSpace=wrap;html=1;" parent="WIyWlLk6GJQsqaUBKTNV-1" vertex="1">
          <mxGeometry x="1275" y="1045" width="90" height="30" as="geometry" />
        </mxCell>
        <mxCell id="78SHquf4xXhVxRJzYclN-86" value="进一步常量传播" style="rounded=0;whiteSpace=wrap;html=1;" parent="WIyWlLk6GJQsqaUBKTNV-1" vertex="1">
          <mxGeometry x="1155" y="1045" width="90" height="30" as="geometry" />
        </mxCell>
        <mxCell id="tmzfgXfwM9NLhvjGa7lV-8" value="" style="edgeStyle=orthogonalEdgeStyle;rounded=0;orthogonalLoop=1;jettySize=auto;html=1;" parent="WIyWlLk6GJQsqaUBKTNV-1" source="tmzfgXfwM9NLhvjGa7lV-1" target="tmzfgXfwM9NLhvjGa7lV-2" edge="1">
          <mxGeometry relative="1" as="geometry" />
        </mxCell>
        <mxCell id="tmzfgXfwM9NLhvjGa7lV-1" value="verilate()&lt;br&gt;转换" style="rounded=1;whiteSpace=wrap;html=1;fontSize=12;glass=0;strokeWidth=1;shadow=0;" parent="WIyWlLk6GJQsqaUBKTNV-1" vertex="1">
          <mxGeometry x="585" y="30" width="120" height="40" as="geometry" />
        </mxCell>
        <mxCell id="tmzfgXfwM9NLhvjGa7lV-9" style="edgeStyle=orthogonalEdgeStyle;rounded=0;orthogonalLoop=1;jettySize=auto;html=1;exitX=0.5;exitY=1;exitDx=0;exitDy=0;entryX=0.5;entryY=0;entryDx=0;entryDy=0;" parent="WIyWlLk6GJQsqaUBKTNV-1" source="tmzfgXfwM9NLhvjGa7lV-2" target="tmzfgXfwM9NLhvjGa7lV-3" edge="1">
          <mxGeometry relative="1" as="geometry" />
        </mxCell>
        <mxCell id="tmzfgXfwM9NLhvjGa7lV-2" value="根据选项和__verFiles.dat时戳判断是否可以跳过重复生成" style="rounded=1;whiteSpace=wrap;html=1;fontSize=12;glass=0;strokeWidth=1;shadow=0;" parent="WIyWlLk6GJQsqaUBKTNV-1" vertex="1">
          <mxGeometry x="560" y="90" width="170" height="40" as="geometry" />
        </mxCell>
        <mxCell id="tmzfgXfwM9NLhvjGa7lV-10" style="edgeStyle=orthogonalEdgeStyle;rounded=0;orthogonalLoop=1;jettySize=auto;html=1;exitX=0.5;exitY=1;exitDx=0;exitDy=0;entryX=0.5;entryY=0;entryDx=0;entryDy=0;" parent="WIyWlLk6GJQsqaUBKTNV-1" source="tmzfgXfwM9NLhvjGa7lV-3" target="tmzfgXfwM9NLhvjGa7lV-4" edge="1">
          <mxGeometry relative="1" as="geometry" />
        </mxCell>
        <mxCell id="tmzfgXfwM9NLhvjGa7lV-3" value="Cleanup&lt;br&gt;删除_*.tree, _*.dot, _*.txt文件" style="rounded=1;whiteSpace=wrap;html=1;fontSize=12;glass=0;strokeWidth=1;shadow=0;" parent="WIyWlLk6GJQsqaUBKTNV-1" vertex="1">
          <mxGeometry x="560" y="150" width="170" height="40" as="geometry" />
        </mxCell>
        <mxCell id="tmzfgXfwM9NLhvjGa7lV-11" style="edgeStyle=orthogonalEdgeStyle;rounded=0;orthogonalLoop=1;jettySize=auto;html=1;exitX=0.5;exitY=1;exitDx=0;exitDy=0;entryX=0.5;entryY=0;entryDx=0;entryDy=0;" parent="WIyWlLk6GJQsqaUBKTNV-1" source="tmzfgXfwM9NLhvjGa7lV-4" target="tmzfgXfwM9NLhvjGa7lV-6" edge="1">
          <mxGeometry relative="1" as="geometry" />
        </mxCell>
        <mxCell id="tmzfgXfwM9NLhvjGa7lV-4" value="SelfTest&lt;br&gt;" style="rounded=1;whiteSpace=wrap;html=1;fontSize=12;glass=0;strokeWidth=1;shadow=0;" parent="WIyWlLk6GJQsqaUBKTNV-1" vertex="1">
          <mxGeometry x="560" y="210" width="170" height="40" as="geometry" />
        </mxCell>
        <mxCell id="tmzfgXfwM9NLhvjGa7lV-12" style="edgeStyle=orthogonalEdgeStyle;rounded=0;orthogonalLoop=1;jettySize=auto;html=1;exitX=0.5;exitY=1;exitDx=0;exitDy=0;entryX=0.5;entryY=0;entryDx=0;entryDy=0;" parent="WIyWlLk6GJQsqaUBKTNV-1" source="tmzfgXfwM9NLhvjGa7lV-6" target="tmzfgXfwM9NLhvjGa7lV-7" edge="1">
          <mxGeometry relative="1" as="geometry" />
        </mxCell>
        <mxCell id="tmzfgXfwM9NLhvjGa7lV-6" value="v3Global.readFiles()&lt;br&gt;@V3Parse" style="shape=process;whiteSpace=wrap;html=1;backgroundOutline=1;" parent="WIyWlLk6GJQsqaUBKTNV-1" vertex="1">
          <mxGeometry x="570" y="270" width="150" height="40" as="geometry" />
        </mxCell>
        <mxCell id="tmzfgXfwM9NLhvjGa7lV-7" value="process()" style="shape=process;whiteSpace=wrap;html=1;backgroundOutline=1;" parent="WIyWlLk6GJQsqaUBKTNV-1" vertex="1">
          <mxGeometry x="570" y="330" width="150" height="40" as="geometry" />
        </mxCell>
        <mxCell id="tmzfgXfwM9NLhvjGa7lV-29" style="edgeStyle=orthogonalEdgeStyle;rounded=0;orthogonalLoop=1;jettySize=auto;html=1;exitX=1;exitY=0.5;exitDx=0;exitDy=0;entryX=0;entryY=0.5;entryDx=0;entryDy=0;dashed=1;strokeWidth=1;jumpSize=6;" parent="WIyWlLk6GJQsqaUBKTNV-1" source="tmzfgXfwM9NLhvjGa7lV-7" target="78SHquf4xXhVxRJzYclN-38" edge="1">
          <mxGeometry relative="1" as="geometry">
            <mxPoint x="990" y="226" as="sourcePoint" />
            <mxPoint x="1005" y="571" as="targetPoint" />
          </mxGeometry>
        </mxCell>
        <mxCell id="tmzfgXfwM9NLhvjGa7lV-54" style="edgeStyle=orthogonalEdgeStyle;rounded=0;orthogonalLoop=1;jettySize=auto;html=1;exitX=0;exitY=0.5;exitDx=0;exitDy=0;strokeWidth=1;jumpSize=6;dashed=1;dashPattern=1 4;entryX=1;entryY=0.5;entryDx=0;entryDy=0;strokeColor=#0000FF;" parent="WIyWlLk6GJQsqaUBKTNV-1" source="78SHquf4xXhVxRJzYclN-29" target="tmzfgXfwM9NLhvjGa7lV-6" edge="1">
          <mxGeometry relative="1" as="geometry">
            <mxPoint x="749.9999999999998" y="270" as="sourcePoint" />
            <mxPoint x="790" y="460" as="targetPoint" />
          </mxGeometry>
        </mxCell>
        <mxCell id="tmzfgXfwM9NLhvjGa7lV-67" style="edgeStyle=orthogonalEdgeStyle;rounded=0;jumpSize=6;orthogonalLoop=1;jettySize=auto;html=1;exitX=0.5;exitY=1;exitDx=0;exitDy=0;fontColor=#FF0000;strokeWidth=1;" parent="WIyWlLk6GJQsqaUBKTNV-1" source="tmzfgXfwM9NLhvjGa7lV-56" target="tmzfgXfwM9NLhvjGa7lV-60" edge="1">
          <mxGeometry relative="1" as="geometry" />
        </mxCell>
        <mxCell id="tmzfgXfwM9NLhvjGa7lV-56" value="V3EmitC::emitc()" style="rounded=1;whiteSpace=wrap;html=1;fontSize=12;glass=0;strokeWidth=1;shadow=0;" parent="WIyWlLk6GJQsqaUBKTNV-1" vertex="1">
          <mxGeometry x="839.86" y="1240" width="120" height="40" as="geometry" />
        </mxCell>
        <mxCell id="tmzfgXfwM9NLhvjGa7lV-68" value="N" style="edgeStyle=orthogonalEdgeStyle;rounded=0;jumpSize=6;orthogonalLoop=1;jettySize=auto;html=1;exitX=0.5;exitY=1;exitDx=0;exitDy=0;entryX=0.5;entryY=0;entryDx=0;entryDy=0;fontColor=#FF0000;strokeWidth=1;" parent="WIyWlLk6GJQsqaUBKTNV-1" source="tmzfgXfwM9NLhvjGa7lV-60" target="tmzfgXfwM9NLhvjGa7lV-61" edge="1">
          <mxGeometry relative="1" as="geometry" />
        </mxCell>
        <mxCell id="tmzfgXfwM9NLhvjGa7lV-78" value="Y" style="edgeStyle=orthogonalEdgeStyle;rounded=0;jumpSize=6;orthogonalLoop=1;jettySize=auto;html=1;exitX=1;exitY=0.5;exitDx=0;exitDy=0;fontColor=#FF0000;strokeColor=#000000;strokeWidth=1;" parent="WIyWlLk6GJQsqaUBKTNV-1" source="tmzfgXfwM9NLhvjGa7lV-60" target="tmzfgXfwM9NLhvjGa7lV-79" edge="1">
          <mxGeometry relative="1" as="geometry">
            <mxPoint x="1039.8600000000001" y="1341.142857142857" as="targetPoint" />
          </mxGeometry>
        </mxCell>
        <mxCell id="tmzfgXfwM9NLhvjGa7lV-60" value="遍历v3Global所有module" style="rhombus;whiteSpace=wrap;html=1;rounded=0;shadow=0;glass=0;strokeWidth=1;" parent="WIyWlLk6GJQsqaUBKTNV-1" vertex="1">
          <mxGeometry x="839.86" y="1300" width="120" height="40" as="geometry" />
        </mxCell>
        <mxCell id="tmzfgXfwM9NLhvjGa7lV-69" value="N" style="edgeStyle=orthogonalEdgeStyle;rounded=0;jumpSize=6;orthogonalLoop=1;jettySize=auto;html=1;exitX=0.5;exitY=1;exitDx=0;exitDy=0;entryX=0.5;entryY=0;entryDx=0;entryDy=0;fontColor=#FF0000;strokeWidth=1;" parent="WIyWlLk6GJQsqaUBKTNV-1" source="tmzfgXfwM9NLhvjGa7lV-61" target="tmzfgXfwM9NLhvjGa7lV-64" edge="1">
          <mxGeometry relative="1" as="geometry" />
        </mxCell>
        <mxCell id="tmzfgXfwM9NLhvjGa7lV-77" value="Y" style="edgeStyle=orthogonalEdgeStyle;rounded=0;jumpSize=6;orthogonalLoop=1;jettySize=auto;html=1;exitX=0;exitY=0.5;exitDx=0;exitDy=0;entryX=0;entryY=0.5;entryDx=0;entryDy=0;fontColor=#FF0000;strokeColor=#000000;strokeWidth=1;" parent="WIyWlLk6GJQsqaUBKTNV-1" source="tmzfgXfwM9NLhvjGa7lV-61" target="tmzfgXfwM9NLhvjGa7lV-60" edge="1">
          <mxGeometry relative="1" as="geometry" />
        </mxCell>
        <mxCell id="tmzfgXfwM9NLhvjGa7lV-61" value="是AstClass类型？" style="rhombus;whiteSpace=wrap;html=1;rounded=0;shadow=0;glass=0;strokeWidth=1;" parent="WIyWlLk6GJQsqaUBKTNV-1" vertex="1">
          <mxGeometry x="839.86" y="1376" width="120" height="39" as="geometry" />
        </mxCell>
        <mxCell id="tmzfgXfwM9NLhvjGa7lV-74" style="edgeStyle=orthogonalEdgeStyle;rounded=0;jumpSize=6;orthogonalLoop=1;jettySize=auto;html=1;exitX=0.5;exitY=1;exitDx=0;exitDy=0;entryX=0.5;entryY=0;entryDx=0;entryDy=0;fontColor=#FF0000;strokeColor=#000000;strokeWidth=1;" parent="WIyWlLk6GJQsqaUBKTNV-1" source="tmzfgXfwM9NLhvjGa7lV-64" target="tmzfgXfwM9NLhvjGa7lV-65" edge="1">
          <mxGeometry relative="1" as="geometry" />
        </mxCell>
        <mxCell id="tmzfgXfwM9NLhvjGa7lV-64" value="&lt;span&gt;EmitCImp::mainInt(nodep)&lt;/span&gt;" style="rounded=0;whiteSpace=wrap;html=1;shadow=0;glass=0;strokeWidth=1;" parent="WIyWlLk6GJQsqaUBKTNV-1" vertex="1">
          <mxGeometry x="819.86" y="1459" width="160" height="40" as="geometry" />
        </mxCell>
        <mxCell id="tmzfgXfwM9NLhvjGa7lV-75" style="edgeStyle=orthogonalEdgeStyle;rounded=0;jumpSize=6;orthogonalLoop=1;jettySize=auto;html=1;exitX=0.5;exitY=1;exitDx=0;exitDy=0;entryX=0.5;entryY=0;entryDx=0;entryDy=0;fontColor=#FF0000;strokeColor=#000000;strokeWidth=1;" parent="WIyWlLk6GJQsqaUBKTNV-1" source="tmzfgXfwM9NLhvjGa7lV-65" target="tmzfgXfwM9NLhvjGa7lV-66" edge="1">
          <mxGeometry relative="1" as="geometry" />
        </mxCell>
        <mxCell id="tmzfgXfwM9NLhvjGa7lV-65" value="&lt;span&gt;EmitCImp::mainImp(nodep, true)&lt;/span&gt;" style="rounded=0;whiteSpace=wrap;html=1;shadow=0;glass=0;strokeWidth=1;" parent="WIyWlLk6GJQsqaUBKTNV-1" vertex="1">
          <mxGeometry x="819.86" y="1519" width="160" height="40" as="geometry" />
        </mxCell>
        <mxCell id="tmzfgXfwM9NLhvjGa7lV-76" style="edgeStyle=orthogonalEdgeStyle;rounded=0;jumpSize=6;orthogonalLoop=1;jettySize=auto;html=1;exitX=0.5;exitY=1;exitDx=0;exitDy=0;fontColor=#FF0000;strokeColor=#000000;strokeWidth=1;entryX=0;entryY=0.5;entryDx=0;entryDy=0;" parent="WIyWlLk6GJQsqaUBKTNV-1" source="tmzfgXfwM9NLhvjGa7lV-66" target="tmzfgXfwM9NLhvjGa7lV-60" edge="1">
          <mxGeometry relative="1" as="geometry">
            <Array as="points">
              <mxPoint x="899.86" y="1640" />
              <mxPoint x="789.86" y="1640" />
              <mxPoint x="789.86" y="1320" />
            </Array>
          </mxGeometry>
        </mxCell>
        <mxCell id="tmzfgXfwM9NLhvjGa7lV-66" value="&lt;span&gt;EmitCImp::mainImp(nodep, false)&lt;/span&gt;" style="rounded=0;whiteSpace=wrap;html=1;shadow=0;glass=0;strokeWidth=1;" parent="WIyWlLk6GJQsqaUBKTNV-1" vertex="1">
          <mxGeometry x="819.86" y="1579" width="160" height="40" as="geometry" />
        </mxCell>
        <mxCell id="tmzfgXfwM9NLhvjGa7lV-79" value="end" style="strokeWidth=1;html=1;shape=mxgraph.flowchart.terminator;whiteSpace=wrap;rounded=0;shadow=0;glass=0;" parent="WIyWlLk6GJQsqaUBKTNV-1" vertex="1">
          <mxGeometry x="984.86" y="1360" width="50" height="30" as="geometry" />
        </mxCell>
        <mxCell id="tmzfgXfwM9NLhvjGa7lV-82" style="edgeStyle=orthogonalEdgeStyle;rounded=0;jumpSize=6;orthogonalLoop=1;jettySize=auto;html=1;exitX=0.5;exitY=1;exitDx=0;exitDy=0;entryX=0.5;entryY=0;entryDx=0;entryDy=0;fontColor=#FF0000;strokeColor=#000000;strokeWidth=1;" parent="WIyWlLk6GJQsqaUBKTNV-1" source="tmzfgXfwM9NLhvjGa7lV-80" target="tmzfgXfwM9NLhvjGa7lV-81" edge="1">
          <mxGeometry relative="1" as="geometry" />
        </mxCell>
        <mxCell id="tmzfgXfwM9NLhvjGa7lV-80" value="EmitCImp::mainInt( AstNodeModule* modp )&lt;br&gt;生成头文件" style="rounded=1;whiteSpace=wrap;html=1;fontSize=12;glass=0;strokeWidth=1;shadow=0;" parent="WIyWlLk6GJQsqaUBKTNV-1" vertex="1">
          <mxGeometry x="1104.8600000000001" y="1240" width="140" height="40" as="geometry" />
        </mxCell>
        <mxCell id="tmzfgXfwM9NLhvjGa7lV-87" style="edgeStyle=orthogonalEdgeStyle;rounded=0;jumpSize=6;orthogonalLoop=1;jettySize=auto;html=1;exitX=0.5;exitY=1;exitDx=0;exitDy=0;entryX=0.5;entryY=0;entryDx=0;entryDy=0;fontColor=#FF0000;strokeColor=#000000;strokeWidth=1;" parent="WIyWlLk6GJQsqaUBKTNV-1" source="tmzfgXfwM9NLhvjGa7lV-81" target="tmzfgXfwM9NLhvjGa7lV-83" edge="1">
          <mxGeometry relative="1" as="geometry" />
        </mxCell>
        <mxCell id="tmzfgXfwM9NLhvjGa7lV-81" value="newOutCFile(modp, false, false)" style="rounded=0;whiteSpace=wrap;html=1;shadow=0;glass=0;strokeWidth=1;" parent="WIyWlLk6GJQsqaUBKTNV-1" vertex="1">
          <mxGeometry x="1107.3600000000001" y="1300" width="135" height="30" as="geometry" />
        </mxCell>
        <mxCell id="tmzfgXfwM9NLhvjGa7lV-88" style="edgeStyle=orthogonalEdgeStyle;rounded=0;jumpSize=6;orthogonalLoop=1;jettySize=auto;html=1;exitX=0.5;exitY=1;exitDx=0;exitDy=0;entryX=0.5;entryY=0;entryDx=0;entryDy=0;fontColor=#FF0000;strokeColor=#000000;strokeWidth=1;" parent="WIyWlLk6GJQsqaUBKTNV-1" source="tmzfgXfwM9NLhvjGa7lV-83" target="tmzfgXfwM9NLhvjGa7lV-84" edge="1">
          <mxGeometry relative="1" as="geometry" />
        </mxCell>
        <mxCell id="tmzfgXfwM9NLhvjGa7lV-83" value="emitIntTop(modp)" style="rounded=0;whiteSpace=wrap;html=1;shadow=0;glass=0;strokeWidth=1;" parent="WIyWlLk6GJQsqaUBKTNV-1" vertex="1">
          <mxGeometry x="1107.3600000000001" y="1350" width="135" height="30" as="geometry" />
        </mxCell>
        <mxCell id="tmzfgXfwM9NLhvjGa7lV-89" style="edgeStyle=orthogonalEdgeStyle;rounded=0;jumpSize=6;orthogonalLoop=1;jettySize=auto;html=1;exitX=0.5;exitY=1;exitDx=0;exitDy=0;entryX=0.5;entryY=0;entryDx=0;entryDy=0;fontColor=#FF0000;strokeColor=#000000;strokeWidth=1;" parent="WIyWlLk6GJQsqaUBKTNV-1" source="tmzfgXfwM9NLhvjGa7lV-84" target="tmzfgXfwM9NLhvjGa7lV-86" edge="1">
          <mxGeometry relative="1" as="geometry" />
        </mxCell>
        <mxCell id="tmzfgXfwM9NLhvjGa7lV-84" value="emitInt(modp)" style="rounded=0;whiteSpace=wrap;html=1;shadow=0;glass=0;strokeWidth=1;" parent="WIyWlLk6GJQsqaUBKTNV-1" vertex="1">
          <mxGeometry x="1107.3600000000001" y="1400" width="135" height="30" as="geometry" />
        </mxCell>
        <mxCell id="tmzfgXfwM9NLhvjGa7lV-92" style="edgeStyle=orthogonalEdgeStyle;rounded=0;jumpSize=6;orthogonalLoop=1;jettySize=auto;html=1;exitX=0.5;exitY=1;exitDx=0;exitDy=0;entryX=0.5;entryY=0;entryDx=0;entryDy=0;fontColor=#FF0000;strokeColor=#000000;strokeWidth=1;" parent="WIyWlLk6GJQsqaUBKTNV-1" source="tmzfgXfwM9NLhvjGa7lV-85" target="tmzfgXfwM9NLhvjGa7lV-91" edge="1">
          <mxGeometry relative="1" as="geometry" />
        </mxCell>
        <mxCell id="tmzfgXfwM9NLhvjGa7lV-85" value="emitInt(packagep-&amp;gt;classp())" style="rounded=0;whiteSpace=wrap;html=1;shadow=0;glass=0;strokeWidth=1;" parent="WIyWlLk6GJQsqaUBKTNV-1" vertex="1">
          <mxGeometry x="1098.6100000000001" y="1529" width="152.5" height="30" as="geometry" />
        </mxCell>
        <mxCell id="tmzfgXfwM9NLhvjGa7lV-90" value="Y" style="edgeStyle=orthogonalEdgeStyle;rounded=0;jumpSize=6;orthogonalLoop=1;jettySize=auto;html=1;exitX=0.5;exitY=1;exitDx=0;exitDy=0;entryX=0.5;entryY=0;entryDx=0;entryDy=0;fontColor=#FF0000;strokeColor=#000000;strokeWidth=1;" parent="WIyWlLk6GJQsqaUBKTNV-1" source="tmzfgXfwM9NLhvjGa7lV-86" target="tmzfgXfwM9NLhvjGa7lV-85" edge="1">
          <mxGeometry relative="1" as="geometry" />
        </mxCell>
        <mxCell id="tmzfgXfwM9NLhvjGa7lV-93" value="N" style="edgeStyle=orthogonalEdgeStyle;rounded=0;jumpSize=6;orthogonalLoop=1;jettySize=auto;html=1;entryX=1;entryY=0.5;entryDx=0;entryDy=0;fontColor=#FF0000;strokeColor=#000000;strokeWidth=1;exitX=1;exitY=0.5;exitDx=0;exitDy=0;" parent="WIyWlLk6GJQsqaUBKTNV-1" source="tmzfgXfwM9NLhvjGa7lV-86" target="tmzfgXfwM9NLhvjGa7lV-91" edge="1">
          <mxGeometry relative="1" as="geometry" />
        </mxCell>
        <mxCell id="tmzfgXfwM9NLhvjGa7lV-86" value="是AstClassPackage类型？" style="rhombus;whiteSpace=wrap;html=1;rounded=0;shadow=0;glass=0;strokeWidth=1;" parent="WIyWlLk6GJQsqaUBKTNV-1" vertex="1">
          <mxGeometry x="1114.8600000000001" y="1450" width="120" height="39" as="geometry" />
        </mxCell>
        <mxCell id="tmzfgXfwM9NLhvjGa7lV-91" value="ofp()-&amp;gt;putsEndGuard()" style="rounded=0;whiteSpace=wrap;html=1;shadow=0;glass=0;strokeWidth=1;" parent="WIyWlLk6GJQsqaUBKTNV-1" vertex="1">
          <mxGeometry x="1107.3600000000001" y="1579" width="135" height="30" as="geometry" />
        </mxCell>
        <mxCell id="tmzfgXfwM9NLhvjGa7lV-117" style="edgeStyle=orthogonalEdgeStyle;rounded=0;jumpSize=6;orthogonalLoop=1;jettySize=auto;html=1;exitX=0.5;exitY=1;exitDx=0;exitDy=0;entryX=0.5;entryY=0;entryDx=0;entryDy=0;fontSize=4;fontColor=#FF0000;strokeColor=#000000;strokeWidth=1;" parent="WIyWlLk6GJQsqaUBKTNV-1" source="tmzfgXfwM9NLhvjGa7lV-94" target="tmzfgXfwM9NLhvjGa7lV-114" edge="1">
          <mxGeometry relative="1" as="geometry" />
        </mxCell>
        <mxCell id="tmzfgXfwM9NLhvjGa7lV-94" value="EmitCImp::mainImp( AstNodeModule* modp, bool slow)&lt;br&gt;生成源文件" style="rounded=1;whiteSpace=wrap;html=1;fontSize=12;glass=0;strokeWidth=1;shadow=0;" parent="WIyWlLk6GJQsqaUBKTNV-1" vertex="1">
          <mxGeometry x="1299.8600000000001" y="1240" width="190" height="40" as="geometry" />
        </mxCell>
        <mxCell id="tmzfgXfwM9NLhvjGa7lV-113" value="EmitCImp::emitInt( AstNodeModule* modp )" style="rounded=1;whiteSpace=wrap;html=1;fontSize=12;glass=0;strokeWidth=1;shadow=0;" parent="WIyWlLk6GJQsqaUBKTNV-1" vertex="1">
          <mxGeometry x="1104.8600000000001" y="1650" width="140" height="40" as="geometry" />
        </mxCell>
        <mxCell id="tmzfgXfwM9NLhvjGa7lV-118" style="edgeStyle=orthogonalEdgeStyle;rounded=0;jumpSize=6;orthogonalLoop=1;jettySize=auto;html=1;exitX=0.5;exitY=1;exitDx=0;exitDy=0;entryX=0.5;entryY=0;entryDx=0;entryDy=0;fontSize=4;fontColor=#FF0000;strokeColor=#000000;strokeWidth=1;" parent="WIyWlLk6GJQsqaUBKTNV-1" source="tmzfgXfwM9NLhvjGa7lV-114" target="tmzfgXfwM9NLhvjGa7lV-115" edge="1">
          <mxGeometry relative="1" as="geometry" />
        </mxCell>
        <mxCell id="tmzfgXfwM9NLhvjGa7lV-114" value="newOutCFile(modp, slow, true)" style="rounded=0;whiteSpace=wrap;html=1;shadow=0;glass=0;strokeWidth=1;" parent="WIyWlLk6GJQsqaUBKTNV-1" vertex="1">
          <mxGeometry x="1327.3600000000001" y="1300" width="135" height="30" as="geometry" />
        </mxCell>
        <mxCell id="tmzfgXfwM9NLhvjGa7lV-119" style="edgeStyle=orthogonalEdgeStyle;rounded=0;jumpSize=6;orthogonalLoop=1;jettySize=auto;html=1;exitX=0.5;exitY=1;exitDx=0;exitDy=0;entryX=0.5;entryY=0;entryDx=0;entryDy=0;fontSize=4;fontColor=#FF0000;strokeColor=#000000;strokeWidth=1;" parent="WIyWlLk6GJQsqaUBKTNV-1" source="tmzfgXfwM9NLhvjGa7lV-115" target="tmzfgXfwM9NLhvjGa7lV-116" edge="1">
          <mxGeometry relative="1" as="geometry" />
        </mxCell>
        <mxCell id="tmzfgXfwM9NLhvjGa7lV-115" value="emitImpTop(modp)" style="rounded=0;whiteSpace=wrap;html=1;shadow=0;glass=0;strokeWidth=1;" parent="WIyWlLk6GJQsqaUBKTNV-1" vertex="1">
          <mxGeometry x="1327.3600000000001" y="1350" width="135" height="30" as="geometry" />
        </mxCell>
        <mxCell id="tmzfgXfwM9NLhvjGa7lV-126" style="edgeStyle=orthogonalEdgeStyle;rounded=0;jumpSize=6;orthogonalLoop=1;jettySize=auto;html=1;exitX=0.5;exitY=1;exitDx=0;exitDy=0;entryX=0.5;entryY=0;entryDx=0;entryDy=0;fontSize=4;fontColor=#FF0000;strokeColor=#000000;strokeWidth=1;" parent="WIyWlLk6GJQsqaUBKTNV-1" source="tmzfgXfwM9NLhvjGa7lV-116" target="tmzfgXfwM9NLhvjGa7lV-124" edge="1">
          <mxGeometry relative="1" as="geometry" />
        </mxCell>
        <mxCell id="tmzfgXfwM9NLhvjGa7lV-116" value="emitImp(modp)" style="rounded=0;whiteSpace=wrap;html=1;shadow=0;glass=0;strokeWidth=1;" parent="WIyWlLk6GJQsqaUBKTNV-1" vertex="1">
          <mxGeometry x="1327.3600000000001" y="1400" width="135" height="30" as="geometry" />
        </mxCell>
        <mxCell id="tmzfgXfwM9NLhvjGa7lV-120" style="edgeStyle=orthogonalEdgeStyle;rounded=0;jumpSize=6;orthogonalLoop=1;jettySize=auto;html=1;exitX=0.5;exitY=1;exitDx=0;exitDy=0;fontColor=#FF0000;strokeColor=#000000;strokeWidth=1;" parent="WIyWlLk6GJQsqaUBKTNV-1" source="tmzfgXfwM9NLhvjGa7lV-121" target="tmzfgXfwM9NLhvjGa7lV-127" edge="1">
          <mxGeometry relative="1" as="geometry" />
        </mxCell>
        <mxCell id="tmzfgXfwM9NLhvjGa7lV-121" value="emitImp(packagep-&amp;gt;classp())" style="rounded=0;whiteSpace=wrap;html=1;shadow=0;glass=0;strokeWidth=1;" parent="WIyWlLk6GJQsqaUBKTNV-1" vertex="1">
          <mxGeometry x="1314.2400000000002" y="1529" width="161.25" height="30" as="geometry" />
        </mxCell>
        <mxCell id="tmzfgXfwM9NLhvjGa7lV-122" value="Y" style="edgeStyle=orthogonalEdgeStyle;rounded=0;jumpSize=6;orthogonalLoop=1;jettySize=auto;html=1;exitX=0.5;exitY=1;exitDx=0;exitDy=0;entryX=0.5;entryY=0;entryDx=0;entryDy=0;fontColor=#FF0000;strokeColor=#000000;strokeWidth=1;" parent="WIyWlLk6GJQsqaUBKTNV-1" source="tmzfgXfwM9NLhvjGa7lV-124" target="tmzfgXfwM9NLhvjGa7lV-121" edge="1">
          <mxGeometry relative="1" as="geometry" />
        </mxCell>
        <mxCell id="tmzfgXfwM9NLhvjGa7lV-123" value="N" style="edgeStyle=orthogonalEdgeStyle;rounded=0;jumpSize=6;orthogonalLoop=1;jettySize=auto;html=1;entryX=1;entryY=0.5;entryDx=0;entryDy=0;fontColor=#FF0000;strokeColor=#000000;strokeWidth=1;exitX=1;exitY=0.5;exitDx=0;exitDy=0;" parent="WIyWlLk6GJQsqaUBKTNV-1" source="tmzfgXfwM9NLhvjGa7lV-124" target="tmzfgXfwM9NLhvjGa7lV-127" edge="1">
          <mxGeometry relative="1" as="geometry" />
        </mxCell>
        <mxCell id="tmzfgXfwM9NLhvjGa7lV-124" value="是AstClassPackage类型？" style="rhombus;whiteSpace=wrap;html=1;rounded=0;shadow=0;glass=0;strokeWidth=1;" parent="WIyWlLk6GJQsqaUBKTNV-1" vertex="1">
          <mxGeometry x="1334.8600000000001" y="1449" width="120" height="39" as="geometry" />
        </mxCell>
        <mxCell id="tmzfgXfwM9NLhvjGa7lV-130" style="edgeStyle=orthogonalEdgeStyle;rounded=0;jumpSize=6;orthogonalLoop=1;jettySize=auto;html=1;entryX=0;entryY=0.5;entryDx=0;entryDy=0;fontSize=4;fontColor=#FF0000;strokeColor=#000000;strokeWidth=1;exitX=0;exitY=0.5;exitDx=0;exitDy=0;" parent="WIyWlLk6GJQsqaUBKTNV-1" source="tmzfgXfwM9NLhvjGa7lV-125" target="tmzfgXfwM9NLhvjGa7lV-127" edge="1">
          <mxGeometry relative="1" as="geometry" />
        </mxCell>
        <mxCell id="tmzfgXfwM9NLhvjGa7lV-133" style="edgeStyle=orthogonalEdgeStyle;rounded=0;jumpSize=6;orthogonalLoop=1;jettySize=auto;html=1;exitX=0.5;exitY=1;exitDx=0;exitDy=0;entryX=0.5;entryY=0;entryDx=0;entryDy=0;entryPerimeter=0;fontSize=4;fontColor=#FF0000;strokeColor=#000000;strokeWidth=1;" parent="WIyWlLk6GJQsqaUBKTNV-1" source="tmzfgXfwM9NLhvjGa7lV-125" target="tmzfgXfwM9NLhvjGa7lV-132" edge="1">
          <mxGeometry relative="1" as="geometry" />
        </mxCell>
        <mxCell id="tmzfgXfwM9NLhvjGa7lV-125" value="AstExecGraph&lt;br&gt;多线程拆分" style="rounded=0;whiteSpace=wrap;html=1;shadow=0;glass=0;strokeWidth=1;" parent="WIyWlLk6GJQsqaUBKTNV-1" vertex="1">
          <mxGeometry x="1327.3600000000006" y="1655" width="135" height="30" as="geometry" />
        </mxCell>
        <mxCell id="tmzfgXfwM9NLhvjGa7lV-128" value="Y" style="edgeStyle=orthogonalEdgeStyle;rounded=0;jumpSize=6;orthogonalLoop=1;jettySize=auto;html=1;exitX=0.5;exitY=1;exitDx=0;exitDy=0;entryX=0.5;entryY=0;entryDx=0;entryDy=0;fontSize=4;fontColor=#FF0000;strokeColor=#000000;strokeWidth=1;" parent="WIyWlLk6GJQsqaUBKTNV-1" source="tmzfgXfwM9NLhvjGa7lV-127" target="tmzfgXfwM9NLhvjGa7lV-125" edge="1">
          <mxGeometry relative="1" as="geometry" />
        </mxCell>
        <mxCell id="tmzfgXfwM9NLhvjGa7lV-131" value="N" style="edgeStyle=orthogonalEdgeStyle;rounded=0;jumpSize=6;orthogonalLoop=1;jettySize=auto;html=1;exitX=1;exitY=1;exitDx=0;exitDy=0;fontSize=4;fontColor=#FF0000;strokeColor=#000000;strokeWidth=1;entryX=1;entryY=0.5;entryDx=0;entryDy=0;entryPerimeter=0;" parent="WIyWlLk6GJQsqaUBKTNV-1" source="tmzfgXfwM9NLhvjGa7lV-127" target="tmzfgXfwM9NLhvjGa7lV-132" edge="1">
          <mxGeometry relative="1" as="geometry">
            <mxPoint x="1399.8600000000001" y="1740" as="targetPoint" />
            <Array as="points">
              <mxPoint x="1481.8600000000001" y="1609" />
              <mxPoint x="1481.8600000000001" y="1715" />
            </Array>
          </mxGeometry>
        </mxCell>
        <mxCell id="tmzfgXfwM9NLhvjGa7lV-127" value="fast &amp;amp;&amp;amp; isTop &amp;amp;&amp;amp; mtasks？" style="rhombus;whiteSpace=wrap;html=1;rounded=0;shadow=0;glass=0;strokeWidth=1;" parent="WIyWlLk6GJQsqaUBKTNV-1" vertex="1">
          <mxGeometry x="1327.3600000000001" y="1580" width="135" height="39" as="geometry" />
        </mxCell>
        <mxCell id="tmzfgXfwM9NLhvjGa7lV-132" value="end" style="strokeWidth=1;html=1;shape=mxgraph.flowchart.terminator;whiteSpace=wrap;rounded=0;shadow=0;glass=0;" parent="WIyWlLk6GJQsqaUBKTNV-1" vertex="1">
          <mxGeometry x="1369.87" y="1700" width="50" height="30" as="geometry" />
        </mxCell>
      </root>
    </mxGraphModel>
  </diagram>
</mxfile>
